<?xml version="1.0" standalone="no"?>
<!DOCTYPE svg PUBLIC "-//W3C//DTD SVG 20010904//EN"
 "http://www.w3.org/TR/2001/REC-SVG-20010904/DTD/svg10.dtd">
<svg version="1.0" xmlns="http://www.w3.org/2000/svg"
 width="1024.000000pt" height="1024.000000pt" viewBox="0 0 1024.000000 1024.000000"
 preserveAspectRatio="xMidYMid meet">

<g transform="translate(0.000000,1024.000000) scale(0.100000,-0.100000)"
fill="#000000" stroke="none">
<path d="M3706 9330 c-16 -5 -40 -19 -53 -32 -53 -49 -53 -52 -53 -423 0 -373
0 -374 54 -424 19 -18 41 -26 80 -29 70 -6 116 20 145 82 20 40 21 59 21 372
0 322 -1 331 -22 374 -17 33 -35 51 -68 68 -48 24 -59 25 -104 12z"/>
<path d="M2042 8740 c-86 -20 -134 -119 -98 -203 7 -18 130 -147 272 -289 288
-285 291 -287 379 -253 71 27 110 104 91 182 -8 30 -491 524 -536 547 -37 19
-71 24 -108 16z"/>
<path d="M5353 8727 c-12 -7 -137 -126 -277 -265 -280 -277 -291 -293 -268
-371 25 -80 105 -125 184 -101 36 10 86 55 301 268 273 272 287 290 273 365
-8 42 -38 82 -76 102 -35 18 -107 19 -137 2z"/>
<path d="M3530 8205 c-192 -32 -392 -111 -554 -220 -270 -180 -473 -473 -558
-803 -40 -156 -50 -375 -23 -533 32 -194 108 -390 213 -549 64 -96 184 -233
250 -285 28 -22 51 -44 52 -48 0 -5 -8 -21 -19 -35 -80 -114 -157 -346 -177
-539 l-6 -61 -47 -13 c-79 -21 -215 -83 -287 -131 -340 -226 -534 -625 -495
-1016 53 -521 419 -920 931 -1013 61 -12 363 -14 1652 -14 868 0 1578 -3 1578
-7 0 -5 -32 -59 -71 -120 -95 -152 -193 -354 -223 -461 -132 -459 83 -955 504
-1167 350 -176 755 -133 1067 114 323 256 452 688 323 1086 -33 100 -108 250
-203 408 -48 79 -87 144 -87 145 0 1 25 0 55 -1 152 -10 400 34 561 98 210 83
429 258 567 452 102 143 196 368 228 548 22 120 17 373 -10 500 -108 511 -470
888 -981 1021 l-105 27 -8 83 c-50 547 -388 1068 -868 1339 -485 273 -1104
301 -1594 71 l-83 -39 -22 97 c-124 537 -517 929 -1059 1052 -116 27 -382 34
-501 14z m411 -300 c324 -56 606 -262 756 -552 64 -123 98 -230 119 -378 l17
-116 -115 -117 c-119 -121 -209 -235 -279 -352 -40 -68 -41 -68 -72 -59 -67
20 -226 39 -329 39 -318 0 -603 -100 -851 -300 l-88 -70 -28 19 c-15 11 -58
52 -95 92 -218 231 -330 550 -297 846 49 433 325 779 728 912 149 50 372 65
534 36z m2261 -989 c510 -95 937 -470 1097 -963 42 -128 60 -235 70 -407 12
-203 23 -217 190 -242 272 -40 466 -137 637 -317 136 -143 227 -315 272 -512
22 -100 22 -315 -2 -425 -38 -181 -128 -355 -253 -490 -96 -103 -175 -162
-298 -221 -166 -81 -219 -91 -510 -96 l-250 -4 -170 273 c-145 233 -176 276
-210 295 -82 46 -169 20 -227 -69 -19 -29 -97 -153 -173 -276 l-139 -222
-1690 2 -1691 3 -80 23 c-235 66 -418 217 -520 427 -59 122 -76 188 -82 335
-4 104 -2 139 15 211 36 149 98 264 201 372 124 132 245 197 433 236 92 19
129 37 152 74 8 13 18 80 25 164 20 236 63 374 166 528 174 262 497 443 826
462 134 7 244 -8 378 -53 158 -54 196 -39 262 104 193 418 599 721 1065 797
114 18 386 14 506 -9z m769 -3921 c261 -414 318 -511 368 -632 114 -277 61
-569 -139 -772 -147 -150 -325 -218 -539 -209 -341 16 -617 272 -660 611 -25
208 35 383 249 723 62 98 187 297 278 442 134 214 167 261 177 250 7 -7 126
-193 266 -413z"/>
<path d="M1330 7029 c-64 -25 -108 -105 -94 -166 10 -42 52 -93 90 -109 26
-11 105 -14 375 -14 377 0 387 2 432 64 32 45 31 129 -2 175 -43 59 -54 61
-433 60 -202 0 -353 -4 -368 -10z"/>
<path d="M2408 5787 c-15 -7 -140 -121 -277 -255 -267 -260 -281 -278 -267
-355 17 -93 126 -146 209 -102 16 8 141 123 278 257 264 256 280 277 264 349
-19 87 -127 142 -207 106z"/>
</g>
</svg>
